# Blender v2.78 (sub 0) OBJ File: ''
# www.blender.org
o Cube.001
v 0.232406 -0.745504 1.477731
v 0.232406 -0.745504 2.843098
v -0.227475 -0.745504 2.843098
v -0.227475 -0.745504 1.477731
v 0.232407 1.119982 1.133819
v -0.227475 1.119982 1.133818
v -0.227475 1.119982 1.602813
v 0.232406 1.119982 1.602814
v -0.227403 1.104268 0.408501
v -0.227403 0.507336 0.901477
v -0.227403 1.119377 0.901477
v 0.232406 -0.340316 2.843098
v -0.227475 -0.340316 2.843098
v -0.227475 -0.294496 2.297937
v -0.227475 -0.305193 1.133818
v 0.232407 -0.305193 1.133819
v 0.232406 -1.216630 1.133818
v -0.227475 -1.216630 1.133818
v 0.232407 -0.294496 2.297937
v 0.232406 -1.222569 1.497195
v -0.227475 -1.222569 1.497194
v -0.227403 -0.075523 -0.037620
v 0.223704 -0.075523 -0.037620
v 0.223704 -0.731178 -0.037620
v -0.227403 -0.731178 -0.037620
v 0.223704 0.551492 0.384487
v 0.223704 0.634134 -0.037620
v 0.223704 1.119377 -0.037620
v 0.223704 1.104269 0.408501
v 0.223704 -0.129772 0.901477
v -0.227403 -0.129772 0.901477
v -0.227403 -0.731178 0.901477
v 0.223704 -0.731178 0.901477
v 0.223704 1.119377 0.901477
v -0.227403 1.119377 -0.037620
v 0.223704 0.507336 0.901477
v -0.227403 0.551492 0.384487
v -0.227403 0.634134 -0.037620
v 0.223704 -0.066768 0.398575
v -0.227403 -0.066768 0.398575
v 0.223704 -0.684649 0.389681
v -0.227403 -0.684649 0.389681
vt 0.5547 0.8286
vt 0.1846 0.8286
vt 0.1846 0.9533
vt 0.5547 0.9533
vt 0.6480 0.8286
vt 0.6480 0.9533
vt 0.5208 0.9533
vt 0.5208 0.8286
vt 0.8207 0.7521
vt 0.6641 0.5625
vt 0.6641 0.7569
vt 0.1506 0.6598
vt 0.1506 0.9766
vt 0.0508 0.9766
vt 0.0508 0.6598
vt 0.2204 0.3077
vt 0.5903 0.3043
vt 0.4810 0.1645
vt 0.1506 0.6674
vt 0.1506 0.4697
vt 0.0508 0.4697
vt 0.0508 0.6674
vt 0.1506 0.5719
vt 0.0508 0.5719
vt 0.1506 0.9766
vt 0.1506 0.6698
vt 0.0508 0.6698
vt 0.0508 0.9766
vt 0.3324 0.8286
vt 0.6480 0.8286
vt 0.6480 0.9533
vt 0.3324 0.9533
vt 0.6480 0.8286
vt 0.5495 0.8286
vt 0.5495 0.9533
vt 0.6480 0.9533
vt 0.1506 0.4684
vt 0.1506 0.5719
vt 0.0508 0.5719
vt 0.0508 0.4684
vt 0.0508 0.7173
vt 0.1487 0.7173
vt 0.1487 0.5750
vt 0.0508 0.5750
vt 0.8284 0.5765
vt 0.9625 0.6028
vt 0.9625 0.7569
vt 0.8207 0.7521
vt 0.1487 0.7055
vt 0.0508 0.7055
vt 0.0508 0.5750
vt 0.1487 0.5750
vt 0.7110 0.9533
vt 0.9655 0.9533
vt 0.9655 0.8310
vt 0.7110 0.8310
vt 0.7110 0.8310
vt 0.9655 0.8310
vt 0.9655 0.9533
vt 0.7110 0.9533
vt 0.1487 0.9765
vt 0.0508 0.9765
vt 0.0508 0.8437
vt 0.1487 0.8437
vt 0.7110 0.8310
vt 0.7110 0.9533
vt 0.8446 0.9533
vt 0.8446 0.8310
vt 0.1487 0.9732
vt 0.0508 0.9732
vt 0.0508 0.8533
vt 0.1487 0.8533
vt 0.0508 0.9765
vt 0.1487 0.9765
vt 0.1487 0.8712
vt 0.0508 0.8712
vt 0.1487 0.7192
vt 0.0508 0.7192
vt 0.1487 0.5851
vt 0.0508 0.5851
vt 0.8497 0.9533
vt 0.8497 0.8310
vt 0.9655 0.8310
vt 0.9655 0.9533
vt 0.6641 0.7569
vt 0.6641 0.5625
vt 0.8267 0.1838
vt 0.9625 0.3773
vt 0.9625 0.1690
vt 0.9625 0.1690
vt 0.9625 0.3773
vt 0.8267 0.1838
vt 0.2204 0.3077
vt 0.5903 0.7571
vt 0.4413 0.7571
vt 0.6641 0.1690
vt 0.5903 0.7571
vt 0.4413 0.7571
vt 0.8284 0.5765
vt 0.8239 0.3801
vt 0.6641 0.3601
vt 0.0472 0.2932
vt 0.0472 0.1645
vt 0.8239 0.3801
vt 0.6641 0.3601
vt 0.5903 0.3043
vt 0.4810 0.1645
vt 0.4748 0.0129
vt 0.5903 0.0148
vt 0.0472 0.1645
vt 0.0472 0.2932
vt 0.4748 0.0129
vt 0.5903 0.0148
vt 0.9625 0.6028
vt 0.6641 0.1690
vt 0.9625 0.7569
vn 0.0000 -1.0000 -0.0000
vn 0.0000 1.0000 0.0000
vn -1.0000 0.0000 0.0000
vn -0.0000 0.6474 0.7622
vn 0.0000 0.0000 -1.0000
vn 0.0000 -0.0000 1.0000
vn 0.0000 -0.6355 -0.7721
vn 0.0000 1.0000 -0.0092
vn 0.0000 -0.9999 -0.0163
vn -0.0000 0.0408 0.9992
vn 1.0000 0.0000 0.0000
vn 0.0000 -0.6368 -0.7711
vn 0.0000 -0.0434 0.9991
vn 0.0000 0.6045 0.7966
vn 0.0000 -0.5284 -0.8490
vn 0.0000 0.0144 -0.9999
vn 0.0000 0.5743 0.8187
s off
f 1/1/1 2/2/1 3/3/1 4/4/1
f 5/5/2 6/6/2 7/7/2 8/8/2
f 9/9/3 10/10/3 11/11/3
f 12/12/4 8/13/4 7/14/4 13/15/4
f 14/16/3 15/17/3 4/18/3
f 16/19/5 17/20/5 18/21/5 15/22/5
f 2/23/6 12/12/6 13/15/6 3/24/6
f 5/25/7 19/26/7 14/27/7 6/28/7
f 19/29/8 16/30/8 15/31/8 14/32/8
f 17/33/9 20/34/9 21/35/9 18/36/9
f 20/37/10 1/38/10 4/39/10 21/40/10
f 22/41/5 23/42/5 24/43/5 25/44/5
f 26/45/11 27/46/11 28/47/11 29/48/11
f 30/49/6 31/50/6 32/51/6 33/52/6
f 32/53/1 25/54/1 24/55/1 33/56/1
f 34/57/2 28/58/2 35/59/2 11/60/2
f 34/61/6 11/62/6 10/63/6 36/64/6
f 36/65/12 10/66/12 9/67/12 29/68/12
f 29/69/13 9/70/13 37/71/13 26/72/13
f 26/72/14 37/71/14 31/50/14 30/49/14
f 35/73/5 28/74/5 27/75/5 38/76/5
f 38/76/15 27/75/15 39/77/15 40/78/15
f 40/78/16 39/77/16 41/79/16 42/80/16
f 42/81/17 41/82/17 23/83/17 22/84/17
f 34/85/11 36/86/11 29/48/11
f 42/87/3 22/88/3 25/89/3
f 24/90/11 23/91/11 41/92/11
f 19/93/11 5/94/11 8/95/11
f 28/47/11 34/85/11 29/48/11
f 33/96/11 24/90/11 41/92/11
f 6/97/3 14/16/3 7/98/3
f 37/99/3 40/100/3 31/101/3
f 13/102/3 14/16/3 4/18/3 3/103/3
f 26/45/11 39/104/11 27/46/11
f 39/104/11 26/45/11 30/105/11
f 16/106/11 1/107/11 20/108/11 17/109/11
f 14/16/3 13/102/3 7/98/3
f 2/110/11 1/107/11 19/93/11 12/111/11
f 16/106/11 19/93/11 1/107/11
f 39/104/11 30/105/11 33/96/11 41/92/11
f 19/93/11 8/95/11 12/111/11
f 21/112/3 4/18/3 15/17/3 18/113/3
f 40/100/3 37/99/3 38/114/3
f 42/87/3 25/89/3 32/115/3
f 9/9/3 11/11/3 35/116/3
f 32/115/3 31/101/3 40/100/3 42/87/3
f 35/116/3 38/114/3 37/99/3 9/9/3
